<mxfile host="Electron" modified="2023-11-10T09:54:35.975Z" agent="Mozilla/5.0 (X11; Linux x86_64) AppleWebKit/537.36 (KHTML, like Gecko) draw.io/22.0.3 Chrome/114.0.5735.289 Electron/25.8.4 Safari/537.36" etag="4r_z_nf3_yZJWdo7zc1R" version="22.0.3" type="device">
  <diagram name="Seite-1" id="LikT143swLGTl7eL-Ghr">
    <mxGraphModel dx="2901" dy="1402" grid="1" gridSize="10" guides="1" tooltips="1" connect="1" arrows="1" fold="1" page="1" pageScale="1" pageWidth="827" pageHeight="1169" math="0" shadow="0">
      <root>
        <mxCell id="0" />
        <mxCell id="1" parent="0" />
        <mxCell id="ySSf8iGEE_JTQXTmBVZs-77" value="" style="endArrow=none;html=1;rounded=0;strokeWidth=2;" parent="1" edge="1">
          <mxGeometry width="50" height="50" relative="1" as="geometry">
            <mxPoint x="510" y="520" as="sourcePoint" />
            <mxPoint x="620" y="520" as="targetPoint" />
          </mxGeometry>
        </mxCell>
        <mxCell id="ySSf8iGEE_JTQXTmBVZs-76" value="" style="endArrow=none;html=1;rounded=0;strokeWidth=2;" parent="1" edge="1">
          <mxGeometry width="50" height="50" relative="1" as="geometry">
            <mxPoint x="620" y="410" as="sourcePoint" />
            <mxPoint x="510" y="410" as="targetPoint" />
          </mxGeometry>
        </mxCell>
        <mxCell id="V65Pgfr2PafZW6ia5RiM-1" value="" style="shape=mxgraph.pid.vessels.jacketed_mixing_vessel;html=1;pointerEvents=1;align=center;verticalLabelPosition=bottom;verticalAlign=top;dashed=0;strokeWidth=1;" parent="1" vertex="1">
          <mxGeometry x="300" y="490" width="140" height="224" as="geometry" />
        </mxCell>
        <mxCell id="V65Pgfr2PafZW6ia5RiM-5" value="" style="endArrow=none;html=1;rounded=0;entryX=1;entryY=0.502;entryDx=0;entryDy=0;entryPerimeter=0;strokeWidth=2;exitX=0;exitY=0.5;exitDx=0;exitDy=0;exitPerimeter=0;" parent="1" target="V65Pgfr2PafZW6ia5RiM-4" edge="1">
          <mxGeometry width="50" height="50" relative="1" as="geometry">
            <mxPoint x="369.7500000000002" y="820" as="sourcePoint" />
            <mxPoint x="401" y="740" as="targetPoint" />
          </mxGeometry>
        </mxCell>
        <mxCell id="f32sUqzUs2OuELiF8NUk-2" value="&lt;table cellpadding=&quot;4&quot; cellspacing=&quot;0&quot; border=&quot;0&quot; style=&quot;font-size:1em;width:100%;height:100%;&quot;&gt;&lt;tbody&gt;&lt;tr&gt;&lt;td&gt;YCS&lt;/td&gt;&lt;/tr&gt;&lt;tr&gt;&lt;td&gt;659.1&lt;/td&gt;&lt;/tr&gt;&lt;/tbody&gt;&lt;/table&gt; " style="html=1;outlineConnect=0;align=center;dashed=0;aspect=fixed;shape=mxgraph.pid2inst.discInst;mounting=room" parent="1" vertex="1">
          <mxGeometry x="411" y="755" width="50" height="50" as="geometry" />
        </mxCell>
        <mxCell id="f32sUqzUs2OuELiF8NUk-15" value="" style="group" parent="1" vertex="1" connectable="0">
          <mxGeometry x="361" y="770" width="27.5" height="20" as="geometry" />
        </mxCell>
        <mxCell id="f32sUqzUs2OuELiF8NUk-9" value="" style="ellipse;whiteSpace=wrap;html=1;aspect=fixed;" parent="f32sUqzUs2OuELiF8NUk-15" vertex="1">
          <mxGeometry x="22" y="5.6200000000000045" width="8.75" height="8.75" as="geometry" />
        </mxCell>
        <mxCell id="f32sUqzUs2OuELiF8NUk-12" value="" style="endArrow=none;html=1;rounded=0;entryX=0;entryY=0.5;entryDx=0;entryDy=0;exitX=1;exitY=0.5;exitDx=0;exitDy=0;" parent="f32sUqzUs2OuELiF8NUk-15" source="f32sUqzUs2OuELiF8NUk-9" target="f32sUqzUs2OuELiF8NUk-2" edge="1">
          <mxGeometry width="50" height="50" relative="1" as="geometry">
            <mxPoint x="-5" y="35" as="sourcePoint" />
            <mxPoint x="45" y="-15" as="targetPoint" />
          </mxGeometry>
        </mxCell>
        <mxCell id="f32sUqzUs2OuELiF8NUk-22" value="" style="endArrow=none;html=1;rounded=0;strokeWidth=2;" parent="1" target="f32sUqzUs2OuELiF8NUk-23" edge="1">
          <mxGeometry width="50" height="50" relative="1" as="geometry">
            <mxPoint x="371" y="910" as="sourcePoint" />
            <mxPoint x="451" y="910" as="targetPoint" />
          </mxGeometry>
        </mxCell>
        <mxCell id="f32sUqzUs2OuELiF8NUk-23" value="" style="shape=mxgraph.pid.heat_exchangers.shell_and_tube_heat_exchanger_2;html=1;pointerEvents=1;align=center;verticalLabelPosition=bottom;verticalAlign=top;dashed=0;rotation=-90;strokeWidth=2;" parent="1" vertex="1">
          <mxGeometry x="471" y="880" width="60" height="60" as="geometry" />
        </mxCell>
        <mxCell id="f32sUqzUs2OuELiF8NUk-24" value="" style="endArrow=none;html=1;rounded=0;entryX=0.126;entryY=0.167;entryDx=0;entryDy=0;entryPerimeter=0;strokeWidth=2;" parent="1" source="f32sUqzUs2OuELiF8NUk-30" target="f32sUqzUs2OuELiF8NUk-23" edge="1">
          <mxGeometry width="50" height="50" relative="1" as="geometry">
            <mxPoint x="481" y="1070" as="sourcePoint" />
            <mxPoint x="441" y="900" as="targetPoint" />
          </mxGeometry>
        </mxCell>
        <mxCell id="f32sUqzUs2OuELiF8NUk-25" value="" style="endArrow=none;html=1;rounded=0;entryX=0.135;entryY=0.835;entryDx=0;entryDy=0;entryPerimeter=0;strokeWidth=2;" parent="1" target="f32sUqzUs2OuELiF8NUk-23" edge="1">
          <mxGeometry width="50" height="50" relative="1" as="geometry">
            <mxPoint x="521" y="1010" as="sourcePoint" />
            <mxPoint x="501" y="950" as="targetPoint" />
          </mxGeometry>
        </mxCell>
        <mxCell id="f32sUqzUs2OuELiF8NUk-26" value="" style="verticalLabelPosition=bottom;outlineConnect=0;align=center;dashed=0;html=1;verticalAlign=top;shape=mxgraph.pid.misc.steam_trap2;" parent="1" vertex="1">
          <mxGeometry x="501" y="950" width="40" height="40" as="geometry" />
        </mxCell>
        <mxCell id="f32sUqzUs2OuELiF8NUk-29" value="" style="group" parent="1" vertex="1" connectable="0">
          <mxGeometry x="473.5" y="1020" width="27.5" height="20" as="geometry" />
        </mxCell>
        <mxCell id="f32sUqzUs2OuELiF8NUk-31" value="" style="ellipse;whiteSpace=wrap;html=1;aspect=fixed;" parent="f32sUqzUs2OuELiF8NUk-29" vertex="1">
          <mxGeometry x="18.75" y="5.6200000000000045" width="8.75" height="8.75" as="geometry" />
        </mxCell>
        <mxCell id="f32sUqzUs2OuELiF8NUk-33" value="" style="endArrow=none;html=1;rounded=0;exitX=1;exitY=0.5;exitDx=0;exitDy=0;" parent="f32sUqzUs2OuELiF8NUk-29" source="f32sUqzUs2OuELiF8NUk-31" edge="1">
          <mxGeometry width="50" height="50" relative="1" as="geometry">
            <mxPoint x="-5" y="35" as="sourcePoint" />
            <mxPoint x="57.5" y="10" as="targetPoint" />
          </mxGeometry>
        </mxCell>
        <mxCell id="f32sUqzUs2OuELiF8NUk-34" value="&lt;table cellpadding=&quot;4&quot; cellspacing=&quot;0&quot; border=&quot;0&quot; style=&quot;font-size:1em;width:100%;height:100%;&quot;&gt;&lt;tbody&gt;&lt;tr&gt;&lt;td&gt;YCS&lt;/td&gt;&lt;/tr&gt;&lt;tr&gt;&lt;td&gt;681.2&lt;/td&gt;&lt;/tr&gt;&lt;/tbody&gt;&lt;/table&gt; " style="html=1;outlineConnect=0;align=center;dashed=0;aspect=fixed;shape=mxgraph.pid2inst.discInst;mounting=room" parent="1" vertex="1">
          <mxGeometry x="531" y="1005" width="50" height="50" as="geometry" />
        </mxCell>
        <mxCell id="f32sUqzUs2OuELiF8NUk-36" value="" style="endArrow=open;html=1;rounded=0;strokeWidth=2;endFill=0;" parent="1" edge="1">
          <mxGeometry width="50" height="50" relative="1" as="geometry">
            <mxPoint x="371" y="910" as="sourcePoint" />
            <mxPoint x="271" y="910" as="targetPoint" />
          </mxGeometry>
        </mxCell>
        <mxCell id="f32sUqzUs2OuELiF8NUk-35" value="" style="verticalLabelPosition=bottom;outlineConnect=0;align=center;dashed=0;html=1;verticalAlign=top;shape=mxgraph.pid.misc.back_draft_damper2;" parent="1" vertex="1">
          <mxGeometry x="341" y="902" width="32" height="16" as="geometry" />
        </mxCell>
        <mxCell id="f32sUqzUs2OuELiF8NUk-44" value="" style="endArrow=none;html=1;rounded=0;entryX=0.981;entryY=0.5;entryDx=0;entryDy=0;entryPerimeter=0;strokeWidth=2;" parent="1" target="f32sUqzUs2OuELiF8NUk-30" edge="1">
          <mxGeometry width="50" height="50" relative="1" as="geometry">
            <mxPoint x="481" y="1070" as="sourcePoint" />
            <mxPoint x="481" y="932" as="targetPoint" />
          </mxGeometry>
        </mxCell>
        <mxCell id="f32sUqzUs2OuELiF8NUk-30" value="" style="verticalLabelPosition=bottom;align=center;html=1;verticalAlign=top;pointerEvents=1;dashed=0;shape=mxgraph.pid2valves.valve;valveType=gate;rotation=90;" parent="1" vertex="1">
          <mxGeometry x="471" y="1025" width="20" height="10" as="geometry" />
        </mxCell>
        <mxCell id="f32sUqzUs2OuELiF8NUk-32" value="" style="endArrow=openThin;html=1;rounded=0;strokeWidth=1;endFill=0;entryX=0.504;entryY=0.496;entryDx=0;entryDy=0;entryPerimeter=0;exitX=0;exitY=0.5;exitDx=0;exitDy=0;endSize=4;startSize=6;jumpSize=6;sourcePerimeterSpacing=-1;startArrow=none;startFill=0;" parent="1" source="f32sUqzUs2OuELiF8NUk-31" target="f32sUqzUs2OuELiF8NUk-30" edge="1">
          <mxGeometry width="50" height="50" relative="1" as="geometry">
            <mxPoint x="529.5" y="1029.92" as="sourcePoint" />
            <mxPoint x="488.5" y="1029.92" as="targetPoint" />
          </mxGeometry>
        </mxCell>
        <mxCell id="f32sUqzUs2OuELiF8NUk-41" value="" style="html=1;shadow=0;dashed=0;align=center;verticalAlign=middle;shape=mxgraph.arrows2.arrow;dy=0.67;dx=20;notch=0;rotation=-90;" parent="1" vertex="1">
          <mxGeometry x="467.25" y="1070" width="27.5" height="17.5" as="geometry" />
        </mxCell>
        <mxCell id="f32sUqzUs2OuELiF8NUk-45" value="" style="group" parent="1" vertex="1" connectable="0">
          <mxGeometry x="265.5" y="1020" width="27.5" height="20" as="geometry" />
        </mxCell>
        <mxCell id="f32sUqzUs2OuELiF8NUk-46" value="" style="ellipse;whiteSpace=wrap;html=1;aspect=fixed;" parent="f32sUqzUs2OuELiF8NUk-45" vertex="1">
          <mxGeometry x="18.75" y="5.6200000000000045" width="8.75" height="8.75" as="geometry" />
        </mxCell>
        <mxCell id="f32sUqzUs2OuELiF8NUk-50" value="" style="verticalLabelPosition=bottom;align=center;html=1;verticalAlign=top;pointerEvents=1;dashed=0;shape=mxgraph.pid2valves.valve;valveType=gate;rotation=90;" parent="f32sUqzUs2OuELiF8NUk-45" vertex="1">
          <mxGeometry x="-4.5" y="5.000000000000004" width="20" height="10" as="geometry" />
        </mxCell>
        <mxCell id="f32sUqzUs2OuELiF8NUk-51" value="" style="endArrow=openThin;html=1;rounded=0;strokeWidth=1;endFill=0;exitX=0.504;exitY=0.504;exitDx=0;exitDy=0;endSize=4;startSize=6;jumpSize=6;sourcePerimeterSpacing=-1;startArrow=none;startFill=0;exitPerimeter=0;entryX=0;entryY=0.5;entryDx=0;entryDy=0;" parent="f32sUqzUs2OuELiF8NUk-45" source="f32sUqzUs2OuELiF8NUk-50" target="f32sUqzUs2OuELiF8NUk-46" edge="1">
          <mxGeometry width="50" height="50" relative="1" as="geometry">
            <mxPoint x="56" y="9.920000000000073" as="sourcePoint" />
            <mxPoint x="25.5" y="30" as="targetPoint" />
          </mxGeometry>
        </mxCell>
        <mxCell id="f32sUqzUs2OuELiF8NUk-48" value="&lt;table cellpadding=&quot;4&quot; cellspacing=&quot;0&quot; border=&quot;0&quot; style=&quot;font-size:1em;width:100%;height:100%;&quot;&gt;&lt;tbody&gt;&lt;tr&gt;&lt;td&gt;YCS&lt;/td&gt;&lt;/tr&gt;&lt;tr&gt;&lt;td&gt;681.1&lt;/td&gt;&lt;/tr&gt;&lt;/tbody&gt;&lt;/table&gt; " style="html=1;outlineConnect=0;align=center;dashed=0;aspect=fixed;shape=mxgraph.pid2inst.discInst;mounting=room" parent="1" vertex="1">
          <mxGeometry x="325" y="1005" width="50" height="50" as="geometry" />
        </mxCell>
        <mxCell id="f32sUqzUs2OuELiF8NUk-49" value="" style="endArrow=none;html=1;rounded=0;entryX=0.981;entryY=0.5;entryDx=0;entryDy=0;entryPerimeter=0;strokeWidth=2;exitX=0.907;exitY=0.495;exitDx=0;exitDy=0;exitPerimeter=0;" parent="1" source="f32sUqzUs2OuELiF8NUk-52" target="f32sUqzUs2OuELiF8NUk-50" edge="1">
          <mxGeometry width="50" height="50" relative="1" as="geometry">
            <mxPoint x="273" y="1070" as="sourcePoint" />
            <mxPoint x="273" y="932" as="targetPoint" />
          </mxGeometry>
        </mxCell>
        <mxCell id="f32sUqzUs2OuELiF8NUk-52" value="" style="html=1;shadow=0;dashed=0;align=center;verticalAlign=middle;shape=mxgraph.arrows2.arrow;dy=0.67;dx=20;notch=0;rotation=-90;" parent="1" vertex="1">
          <mxGeometry x="257.25" y="1070" width="27.5" height="17.5" as="geometry" />
        </mxCell>
        <mxCell id="f32sUqzUs2OuELiF8NUk-55" value="&lt;table cellpadding=&quot;4&quot; cellspacing=&quot;0&quot; border=&quot;0&quot; style=&quot;font-size:1em;width:100%;height:100%;&quot;&gt;&lt;tbody&gt;&lt;tr&gt;&lt;td&gt;PIFC&lt;/td&gt;&lt;/tr&gt;&lt;tr&gt;&lt;td&gt;682.2&lt;/td&gt;&lt;/tr&gt;&lt;/tbody&gt;&lt;/table&gt; " style="html=1;outlineConnect=0;align=center;dashed=0;aspect=fixed;shape=mxgraph.pid2inst.discInst;mounting=room" parent="1" vertex="1">
          <mxGeometry x="170.5" y="835" width="50" height="50" as="geometry" />
        </mxCell>
        <mxCell id="f32sUqzUs2OuELiF8NUk-54" value="" style="endArrow=none;html=1;rounded=0;exitX=1;exitY=0.5;exitDx=0;exitDy=0;" parent="1" edge="1">
          <mxGeometry width="50" height="50" relative="1" as="geometry">
            <mxPoint x="221" y="860" as="sourcePoint" />
            <mxPoint x="271" y="860" as="targetPoint" />
          </mxGeometry>
        </mxCell>
        <mxCell id="f32sUqzUs2OuELiF8NUk-56" value="M" style="dashed=0;outlineConnect=0;align=center;html=1;shape=mxgraph.pid.engines.electric_motor;fontSize=10;aspect=fixed;" parent="1" vertex="1">
          <mxGeometry x="170" y="755" width="50" height="50" as="geometry" />
        </mxCell>
        <mxCell id="f32sUqzUs2OuELiF8NUk-57" value="&lt;table cellpadding=&quot;4&quot; cellspacing=&quot;0&quot; border=&quot;0&quot; style=&quot;font-size:1em;width:100%;height:100%;&quot;&gt;&lt;tbody&gt;&lt;tr&gt;&lt;td&gt;NS&lt;/td&gt;&lt;/tr&gt;&lt;tr&gt;&lt;td&gt;682.1&lt;/td&gt;&lt;/tr&gt;&lt;/tbody&gt;&lt;/table&gt; " style="html=1;outlineConnect=0;align=center;dashed=0;aspect=fixed;shape=mxgraph.pid2inst.discInst;mounting=room" parent="1" vertex="1">
          <mxGeometry x="101" y="755" width="50" height="50" as="geometry" />
        </mxCell>
        <mxCell id="f32sUqzUs2OuELiF8NUk-58" value="" style="endArrow=none;html=1;rounded=0;entryX=0.501;entryY=0.001;entryDx=0;entryDy=0;entryPerimeter=0;exitX=1;exitY=0.5;exitDx=0;exitDy=0;exitPerimeter=0;" parent="1" source="f32sUqzUs2OuELiF8NUk-56" target="f32sUqzUs2OuELiF8NUk-39" edge="1">
          <mxGeometry width="50" height="50" relative="1" as="geometry">
            <mxPoint x="181" y="840" as="sourcePoint" />
            <mxPoint x="231" y="790" as="targetPoint" />
          </mxGeometry>
        </mxCell>
        <mxCell id="f32sUqzUs2OuELiF8NUk-59" value="" style="endArrow=none;html=1;rounded=0;exitX=1;exitY=0.5;exitDx=0;exitDy=0;entryX=0;entryY=0.5;entryDx=0;entryDy=0;entryPerimeter=0;" parent="1" source="f32sUqzUs2OuELiF8NUk-57" target="f32sUqzUs2OuELiF8NUk-56" edge="1">
          <mxGeometry width="50" height="50" relative="1" as="geometry">
            <mxPoint x="191" y="830" as="sourcePoint" />
            <mxPoint x="241" y="780" as="targetPoint" />
          </mxGeometry>
        </mxCell>
        <mxCell id="f32sUqzUs2OuELiF8NUk-60" value="" style="endArrow=none;html=1;rounded=0;entryX=1;entryY=0.759;entryDx=0;entryDy=0;entryPerimeter=0;strokeWidth=2;exitX=-0.004;exitY=0.497;exitDx=0;exitDy=0;exitPerimeter=0;" parent="1" source="ySSf8iGEE_JTQXTmBVZs-3" target="V65Pgfr2PafZW6ia5RiM-1" edge="1">
          <mxGeometry width="50" height="50" relative="1" as="geometry">
            <mxPoint x="591" y="1100" as="sourcePoint" />
            <mxPoint x="461" y="660" as="targetPoint" />
            <Array as="points">
              <mxPoint x="591" y="660" />
            </Array>
          </mxGeometry>
        </mxCell>
        <mxCell id="f32sUqzUs2OuELiF8NUk-61" value="&lt;table cellpadding=&quot;4&quot; cellspacing=&quot;0&quot; border=&quot;0&quot; style=&quot;font-size:1em;width:100%;height:100%;&quot;&gt;&lt;tbody&gt;&lt;tr&gt;&lt;td&gt;FQIRX&lt;/td&gt;&lt;/tr&gt;&lt;tr&gt;&lt;td&gt;658&lt;/td&gt;&lt;/tr&gt;&lt;/tbody&gt;&lt;/table&gt; " style="html=1;outlineConnect=0;align=center;dashed=0;aspect=fixed;shape=mxgraph.pid2inst.discInst;mounting=room" parent="1" vertex="1">
          <mxGeometry x="491" y="700" width="50" height="50" as="geometry" />
        </mxCell>
        <mxCell id="f32sUqzUs2OuELiF8NUk-62" value="" style="endArrow=none;html=1;rounded=0;entryX=0;entryY=0.5;entryDx=0;entryDy=0;" parent="1" target="f32sUqzUs2OuELiF8NUk-61" edge="1">
          <mxGeometry width="50" height="50" relative="1" as="geometry">
            <mxPoint x="370" y="725" as="sourcePoint" />
            <mxPoint x="491" y="770" as="targetPoint" />
          </mxGeometry>
        </mxCell>
        <mxCell id="ySSf8iGEE_JTQXTmBVZs-1" value="&lt;table cellpadding=&quot;4&quot; cellspacing=&quot;0&quot; border=&quot;0&quot; style=&quot;font-size:1em;width:100%;height:100%;&quot;&gt;&lt;tbody&gt;&lt;tr&gt;&lt;td&gt;YCS&lt;/td&gt;&lt;/tr&gt;&lt;tr&gt;&lt;td&gt;681.3&lt;/td&gt;&lt;/tr&gt;&lt;/tbody&gt;&lt;/table&gt; " style="html=1;outlineConnect=0;align=center;dashed=0;aspect=fixed;shape=mxgraph.pid2inst.discInst;mounting=room" parent="1" vertex="1">
          <mxGeometry x="636" y="1005" width="50" height="50" as="geometry" />
        </mxCell>
        <mxCell id="ySSf8iGEE_JTQXTmBVZs-2" value="" style="group" parent="1" vertex="1" connectable="0">
          <mxGeometry x="591" y="1020" width="27.5" height="20" as="geometry" />
        </mxCell>
        <mxCell id="ySSf8iGEE_JTQXTmBVZs-3" value="" style="verticalLabelPosition=bottom;align=center;html=1;verticalAlign=top;pointerEvents=1;dashed=0;shape=mxgraph.pid2valves.valve;valveType=gate;rotation=90;" parent="ySSf8iGEE_JTQXTmBVZs-2" vertex="1">
          <mxGeometry x="-10" y="5" width="20" height="10" as="geometry" />
        </mxCell>
        <mxCell id="ySSf8iGEE_JTQXTmBVZs-4" value="" style="ellipse;whiteSpace=wrap;html=1;aspect=fixed;" parent="ySSf8iGEE_JTQXTmBVZs-2" vertex="1">
          <mxGeometry x="12" y="5.6200000000000045" width="8.75" height="8.75" as="geometry" />
        </mxCell>
        <mxCell id="ySSf8iGEE_JTQXTmBVZs-5" value="" style="endArrow=openThin;html=1;rounded=0;strokeWidth=1;endFill=0;exitX=0.505;exitY=0.5;exitDx=0;exitDy=0;endSize=4;startSize=6;jumpSize=6;sourcePerimeterSpacing=-1;startArrow=none;startFill=0;entryX=0;entryY=0.5;entryDx=0;entryDy=0;exitPerimeter=0;" parent="ySSf8iGEE_JTQXTmBVZs-2" source="ySSf8iGEE_JTQXTmBVZs-3" target="ySSf8iGEE_JTQXTmBVZs-4" edge="1">
          <mxGeometry width="50" height="50" relative="1" as="geometry">
            <mxPoint x="-5.229594535194337e-12" y="9.934999999999945" as="sourcePoint" />
            <mxPoint x="12.5" y="9.92999999999995" as="targetPoint" />
          </mxGeometry>
        </mxCell>
        <mxCell id="ySSf8iGEE_JTQXTmBVZs-6" value="" style="endArrow=none;html=1;rounded=0;entryX=0;entryY=0.5;entryDx=0;entryDy=0;exitX=1;exitY=0.5;exitDx=0;exitDy=0;" parent="1" source="ySSf8iGEE_JTQXTmBVZs-4" target="ySSf8iGEE_JTQXTmBVZs-1" edge="1">
          <mxGeometry width="50" height="50" relative="1" as="geometry">
            <mxPoint x="371" y="820" as="sourcePoint" />
            <mxPoint x="421" y="770" as="targetPoint" />
          </mxGeometry>
        </mxCell>
        <mxCell id="ySSf8iGEE_JTQXTmBVZs-7" value="" style="endArrow=none;html=1;rounded=0;entryX=0.997;entryY=0.507;entryDx=0;entryDy=0;entryPerimeter=0;strokeWidth=2;" parent="1" source="ySSf8iGEE_JTQXTmBVZs-8" target="ySSf8iGEE_JTQXTmBVZs-3" edge="1">
          <mxGeometry width="50" height="50" relative="1" as="geometry">
            <mxPoint x="591" y="1080" as="sourcePoint" />
            <mxPoint x="621" y="1030" as="targetPoint" />
          </mxGeometry>
        </mxCell>
        <mxCell id="ySSf8iGEE_JTQXTmBVZs-9" value="" style="endArrow=none;html=1;rounded=0;entryX=0.997;entryY=0.507;entryDx=0;entryDy=0;entryPerimeter=0;strokeWidth=2;" parent="1" target="ySSf8iGEE_JTQXTmBVZs-8" edge="1">
          <mxGeometry width="50" height="50" relative="1" as="geometry">
            <mxPoint x="591" y="1080" as="sourcePoint" />
            <mxPoint x="591" y="1040" as="targetPoint" />
          </mxGeometry>
        </mxCell>
        <mxCell id="ySSf8iGEE_JTQXTmBVZs-8" value="" style="html=1;shadow=0;dashed=0;align=center;verticalAlign=middle;shape=mxgraph.arrows2.arrow;dy=0.67;dx=20;notch=0;rotation=-90;direction=west;" parent="1" vertex="1">
          <mxGeometry x="577.25" y="1070" width="27.5" height="17.5" as="geometry" />
        </mxCell>
        <mxCell id="ySSf8iGEE_JTQXTmBVZs-12" value="" style="endArrow=none;html=1;rounded=0;exitX=0.499;exitY=0.946;exitDx=0;exitDy=0;exitPerimeter=0;strokeWidth=2;" parent="1" source="V65Pgfr2PafZW6ia5RiM-1" target="V65Pgfr2PafZW6ia5RiM-4" edge="1">
          <mxGeometry width="50" height="50" relative="1" as="geometry">
            <mxPoint x="371" y="702" as="sourcePoint" />
            <mxPoint x="371" y="780" as="targetPoint" />
          </mxGeometry>
        </mxCell>
        <mxCell id="V65Pgfr2PafZW6ia5RiM-4" value="" style="verticalLabelPosition=bottom;align=center;html=1;verticalAlign=top;pointerEvents=1;dashed=0;shape=mxgraph.pid2valves.valve;valveType=gate;rotation=90;" parent="1" vertex="1">
          <mxGeometry x="360" y="775" width="20" height="10" as="geometry" />
        </mxCell>
        <mxCell id="f32sUqzUs2OuELiF8NUk-10" value="" style="endArrow=openThin;html=1;rounded=0;strokeWidth=1;endFill=0;entryX=0.504;entryY=0.496;entryDx=0;entryDy=0;entryPerimeter=0;exitX=0;exitY=0.5;exitDx=0;exitDy=0;endSize=4;startSize=6;jumpSize=6;sourcePerimeterSpacing=-1;startArrow=none;startFill=0;" parent="1" source="f32sUqzUs2OuELiF8NUk-9" target="V65Pgfr2PafZW6ia5RiM-4" edge="1">
          <mxGeometry width="50" height="50" relative="1" as="geometry">
            <mxPoint x="422" y="784.9200000000001" as="sourcePoint" />
            <mxPoint x="381" y="784.9200000000001" as="targetPoint" />
          </mxGeometry>
        </mxCell>
        <mxCell id="ySSf8iGEE_JTQXTmBVZs-13" value="" style="endArrow=open;html=1;rounded=0;strokeWidth=2;endFill=0;entryX=0.002;entryY=0.758;entryDx=0;entryDy=0;entryPerimeter=0;" parent="1" target="V65Pgfr2PafZW6ia5RiM-1" edge="1">
          <mxGeometry width="50" height="50" relative="1" as="geometry">
            <mxPoint x="271" y="1020" as="sourcePoint" />
            <mxPoint x="291" y="710" as="targetPoint" />
            <Array as="points">
              <mxPoint x="271" y="660" />
            </Array>
          </mxGeometry>
        </mxCell>
        <mxCell id="f32sUqzUs2OuELiF8NUk-39" value="" style="shape=mxgraph.pid.pumps_-_iso.pump_(liquid);html=1;pointerEvents=1;align=center;verticalLabelPosition=bottom;verticalAlign=top;dashed=0;rotation=-90;strokeWidth=2;" parent="1" vertex="1">
          <mxGeometry x="241" y="750" width="60" height="60" as="geometry" />
        </mxCell>
        <mxCell id="ySSf8iGEE_JTQXTmBVZs-17" value="&lt;table cellpadding=&quot;4&quot; cellspacing=&quot;0&quot; border=&quot;0&quot; style=&quot;font-size:1em;width:100%;height:100%;&quot;&gt;&lt;tbody&gt;&lt;tr&gt;&lt;td&gt;TRIC&lt;/td&gt;&lt;/tr&gt;&lt;tr&gt;&lt;td&gt;684.2&lt;/td&gt;&lt;/tr&gt;&lt;/tbody&gt;&lt;/table&gt; " style="html=1;outlineConnect=0;align=center;dashed=0;aspect=fixed;shape=mxgraph.pid2inst.discInst;mounting=room" parent="1" vertex="1">
          <mxGeometry x="491" y="555" width="50" height="50" as="geometry" />
        </mxCell>
        <mxCell id="ySSf8iGEE_JTQXTmBVZs-30" value="" style="endArrow=none;html=1;rounded=0;entryX=0;entryY=0.5;entryDx=0;entryDy=0;" parent="1" target="ySSf8iGEE_JTQXTmBVZs-27" edge="1">
          <mxGeometry width="50" height="50" relative="1" as="geometry">
            <mxPoint x="591" y="725" as="sourcePoint" />
            <mxPoint x="631" y="690" as="targetPoint" />
          </mxGeometry>
        </mxCell>
        <mxCell id="ySSf8iGEE_JTQXTmBVZs-31" value="" style="endArrow=none;html=1;rounded=0;entryX=0;entryY=0.5;entryDx=0;entryDy=0;" parent="1" target="ySSf8iGEE_JTQXTmBVZs-17" edge="1">
          <mxGeometry width="50" height="50" relative="1" as="geometry">
            <mxPoint x="391" y="580" as="sourcePoint" />
            <mxPoint x="561" y="600" as="targetPoint" />
          </mxGeometry>
        </mxCell>
        <mxCell id="ySSf8iGEE_JTQXTmBVZs-32" value="" style="endArrow=none;html=1;rounded=0;exitX=0.857;exitY=0.247;exitDx=0;exitDy=0;exitPerimeter=0;strokeWidth=2;" parent="1" source="V65Pgfr2PafZW6ia5RiM-1" edge="1">
          <mxGeometry width="50" height="50" relative="1" as="geometry">
            <mxPoint x="461" y="500" as="sourcePoint" />
            <mxPoint x="491" y="520" as="targetPoint" />
            <Array as="points">
              <mxPoint x="420" y="520" />
            </Array>
          </mxGeometry>
        </mxCell>
        <mxCell id="ySSf8iGEE_JTQXTmBVZs-34" value="" style="endArrow=none;html=1;rounded=0;exitX=0.71;exitY=0.212;exitDx=0;exitDy=0;exitPerimeter=0;strokeWidth=2;" parent="1" source="V65Pgfr2PafZW6ia5RiM-1" edge="1">
          <mxGeometry width="50" height="50" relative="1" as="geometry">
            <mxPoint x="401" y="480" as="sourcePoint" />
            <mxPoint x="491" y="410" as="targetPoint" />
            <Array as="points">
              <mxPoint x="399" y="410" />
            </Array>
          </mxGeometry>
        </mxCell>
        <mxCell id="ySSf8iGEE_JTQXTmBVZs-51" value="" style="group;rotation=-90;" parent="1" vertex="1" connectable="0">
          <mxGeometry x="451" y="360" width="100" height="50" as="geometry" />
        </mxCell>
        <mxCell id="ySSf8iGEE_JTQXTmBVZs-52" value="&lt;table cellpadding=&quot;4&quot; cellspacing=&quot;0&quot; border=&quot;0&quot; style=&quot;font-size:1em;width:100%;height:100%;&quot;&gt;&lt;tbody&gt;&lt;tr&gt;&lt;td&gt;YCS&lt;/td&gt;&lt;/tr&gt;&lt;tr&gt;&lt;td&gt;622&lt;/td&gt;&lt;/tr&gt;&lt;/tbody&gt;&lt;/table&gt; " style="html=1;outlineConnect=0;align=center;dashed=0;aspect=fixed;shape=mxgraph.pid2inst.discInst;mounting=room;rotation=0;" parent="ySSf8iGEE_JTQXTmBVZs-51" vertex="1">
          <mxGeometry x="25" y="-40" width="50" height="50" as="geometry" />
        </mxCell>
        <mxCell id="ySSf8iGEE_JTQXTmBVZs-56" value="" style="endArrow=openThin;html=1;rounded=0;strokeWidth=1;endFill=0;entryX=0.504;entryY=0.496;entryDx=0;entryDy=0;entryPerimeter=0;exitX=0;exitY=0.5;exitDx=0;exitDy=0;endSize=4;startSize=6;jumpSize=6;sourcePerimeterSpacing=-1;startArrow=none;startFill=0;" parent="ySSf8iGEE_JTQXTmBVZs-51" source="ySSf8iGEE_JTQXTmBVZs-54" target="ySSf8iGEE_JTQXTmBVZs-55" edge="1">
          <mxGeometry width="50" height="50" relative="1" as="geometry">
            <mxPoint x="55" y="-6" as="sourcePoint" />
            <mxPoint x="55" y="35" as="targetPoint" />
          </mxGeometry>
        </mxCell>
        <mxCell id="ySSf8iGEE_JTQXTmBVZs-57" value="" style="endArrow=none;html=1;rounded=0;entryX=1;entryY=0.5;entryDx=0;entryDy=0;exitX=0.5;exitY=1;exitDx=0;exitDy=0;" parent="ySSf8iGEE_JTQXTmBVZs-51" source="ySSf8iGEE_JTQXTmBVZs-52" target="ySSf8iGEE_JTQXTmBVZs-54" edge="1">
          <mxGeometry width="50" height="50" relative="1" as="geometry">
            <mxPoint x="95" y="115" as="sourcePoint" />
            <mxPoint x="45" y="65" as="targetPoint" />
          </mxGeometry>
        </mxCell>
        <mxCell id="ySSf8iGEE_JTQXTmBVZs-54" value="" style="ellipse;whiteSpace=wrap;html=1;aspect=fixed;rotation=-90;" parent="ySSf8iGEE_JTQXTmBVZs-51" vertex="1">
          <mxGeometry x="45.37" y="26" width="8.75" height="8.75" as="geometry" />
        </mxCell>
        <mxCell id="ySSf8iGEE_JTQXTmBVZs-55" value="" style="verticalLabelPosition=bottom;align=center;html=1;verticalAlign=top;pointerEvents=1;dashed=0;shape=mxgraph.pid2valves.valve;valveType=gate;rotation=0;" parent="ySSf8iGEE_JTQXTmBVZs-51" vertex="1">
          <mxGeometry x="40" y="45" width="20" height="10" as="geometry" />
        </mxCell>
        <mxCell id="ySSf8iGEE_JTQXTmBVZs-70" value="" style="group;rotation=-90;" parent="1" vertex="1" connectable="0">
          <mxGeometry x="451" y="460" width="100" height="50" as="geometry" />
        </mxCell>
        <mxCell id="ySSf8iGEE_JTQXTmBVZs-71" value="&lt;table cellpadding=&quot;4&quot; cellspacing=&quot;0&quot; border=&quot;0&quot; style=&quot;font-size:1em;width:100%;height:100%;&quot;&gt;&lt;tbody&gt;&lt;tr&gt;&lt;td&gt;YCS&lt;/td&gt;&lt;/tr&gt;&lt;tr&gt;&lt;td&gt;612&lt;/td&gt;&lt;/tr&gt;&lt;/tbody&gt;&lt;/table&gt; " style="html=1;outlineConnect=0;align=center;dashed=0;aspect=fixed;shape=mxgraph.pid2inst.discInst;mounting=room;rotation=0;" parent="ySSf8iGEE_JTQXTmBVZs-70" vertex="1">
          <mxGeometry x="25" y="-30" width="50" height="50" as="geometry" />
        </mxCell>
        <mxCell id="ySSf8iGEE_JTQXTmBVZs-72" value="" style="verticalLabelPosition=bottom;align=center;html=1;verticalAlign=top;pointerEvents=1;dashed=0;shape=mxgraph.pid2valves.valve;valveType=gate;rotation=0;" parent="ySSf8iGEE_JTQXTmBVZs-70" vertex="1">
          <mxGeometry x="40" y="55" width="20" height="10" as="geometry" />
        </mxCell>
        <mxCell id="ySSf8iGEE_JTQXTmBVZs-73" value="" style="endArrow=openThin;html=1;rounded=0;strokeWidth=1;endFill=0;entryX=0.504;entryY=0.496;entryDx=0;entryDy=0;entryPerimeter=0;exitX=0;exitY=0.5;exitDx=0;exitDy=0;endSize=4;startSize=6;jumpSize=6;sourcePerimeterSpacing=-1;startArrow=none;startFill=0;" parent="ySSf8iGEE_JTQXTmBVZs-70" source="ySSf8iGEE_JTQXTmBVZs-75" target="ySSf8iGEE_JTQXTmBVZs-72" edge="1">
          <mxGeometry width="50" height="50" relative="1" as="geometry">
            <mxPoint x="55" y="14" as="sourcePoint" />
            <mxPoint x="55" y="55" as="targetPoint" />
          </mxGeometry>
        </mxCell>
        <mxCell id="ySSf8iGEE_JTQXTmBVZs-74" value="" style="endArrow=none;html=1;rounded=0;entryX=1;entryY=0.5;entryDx=0;entryDy=0;exitX=0.5;exitY=1;exitDx=0;exitDy=0;" parent="ySSf8iGEE_JTQXTmBVZs-70" source="ySSf8iGEE_JTQXTmBVZs-71" target="ySSf8iGEE_JTQXTmBVZs-75" edge="1">
          <mxGeometry width="50" height="50" relative="1" as="geometry">
            <mxPoint x="95" y="135" as="sourcePoint" />
            <mxPoint x="45" y="85" as="targetPoint" />
          </mxGeometry>
        </mxCell>
        <mxCell id="ySSf8iGEE_JTQXTmBVZs-75" value="" style="ellipse;whiteSpace=wrap;html=1;aspect=fixed;rotation=-90;" parent="ySSf8iGEE_JTQXTmBVZs-70" vertex="1">
          <mxGeometry x="45.37" y="36" width="8.75" height="8.75" as="geometry" />
        </mxCell>
        <mxCell id="ySSf8iGEE_JTQXTmBVZs-81" value="" style="endArrow=none;html=1;rounded=0;entryX=0.5;entryY=1;entryDx=0;entryDy=0;" parent="1" target="ySSf8iGEE_JTQXTmBVZs-79" edge="1">
          <mxGeometry width="50" height="50" relative="1" as="geometry">
            <mxPoint x="576" y="410" as="sourcePoint" />
            <mxPoint x="560" y="480" as="targetPoint" />
          </mxGeometry>
        </mxCell>
        <mxCell id="ySSf8iGEE_JTQXTmBVZs-82" value="" style="endArrow=none;html=1;rounded=0;entryX=0.5;entryY=1;entryDx=0;entryDy=0;" parent="1" target="ySSf8iGEE_JTQXTmBVZs-80" edge="1">
          <mxGeometry width="50" height="50" relative="1" as="geometry">
            <mxPoint x="576" y="520" as="sourcePoint" />
            <mxPoint x="560" y="480" as="targetPoint" />
          </mxGeometry>
        </mxCell>
        <mxCell id="ySSf8iGEE_JTQXTmBVZs-83" value="" style="html=1;shadow=0;dashed=0;align=center;verticalAlign=middle;shape=mxgraph.arrows2.arrow;dy=0.67;dx=20;notch=0;rotation=0;direction=west;" parent="1" vertex="1">
          <mxGeometry x="618.5" y="511.25" width="27.5" height="17.5" as="geometry" />
        </mxCell>
        <mxCell id="ySSf8iGEE_JTQXTmBVZs-84" value="" style="html=1;shadow=0;dashed=0;align=center;verticalAlign=middle;shape=mxgraph.arrows2.arrow;dy=0.67;dx=20;notch=0;rotation=0;direction=west;" parent="1" vertex="1">
          <mxGeometry x="618.5" y="401.25" width="27.5" height="17.5" as="geometry" />
        </mxCell>
        <mxCell id="ySSf8iGEE_JTQXTmBVZs-86" value="" style="endArrow=none;html=1;rounded=0;strokeWidth=2;exitX=0.214;exitY=0.229;exitDx=0;exitDy=0;exitPerimeter=0;" parent="1" source="V65Pgfr2PafZW6ia5RiM-1" edge="1">
          <mxGeometry width="50" height="50" relative="1" as="geometry">
            <mxPoint x="331" y="540" as="sourcePoint" />
            <mxPoint x="160" y="420" as="targetPoint" />
            <Array as="points">
              <mxPoint x="330" y="420" />
              <mxPoint x="300" y="420" />
            </Array>
          </mxGeometry>
        </mxCell>
        <mxCell id="ySSf8iGEE_JTQXTmBVZs-87" value="" style="endArrow=none;html=1;rounded=0;strokeWidth=2;exitX=0.141;exitY=0.248;exitDx=0;exitDy=0;exitPerimeter=0;" parent="1" source="V65Pgfr2PafZW6ia5RiM-1" edge="1">
          <mxGeometry width="50" height="50" relative="1" as="geometry">
            <mxPoint x="320" y="550" as="sourcePoint" />
            <mxPoint x="80" y="530" as="targetPoint" />
            <Array as="points">
              <mxPoint x="320" y="530" />
              <mxPoint x="280" y="530" />
            </Array>
          </mxGeometry>
        </mxCell>
        <mxCell id="ySSf8iGEE_JTQXTmBVZs-88" value="" style="endArrow=none;html=1;rounded=0;strokeWidth=2;exitX=0.287;exitY=0.212;exitDx=0;exitDy=0;exitPerimeter=0;" parent="1" source="V65Pgfr2PafZW6ia5RiM-1" edge="1">
          <mxGeometry width="50" height="50" relative="1" as="geometry">
            <mxPoint x="341" y="531" as="sourcePoint" />
            <mxPoint x="160" y="310" as="targetPoint" />
            <Array as="points">
              <mxPoint x="340" y="310" />
              <mxPoint x="300" y="310" />
            </Array>
          </mxGeometry>
        </mxCell>
        <mxCell id="ySSf8iGEE_JTQXTmBVZs-89" value="" style="group;rotation=-90;" parent="1" vertex="1" connectable="0">
          <mxGeometry x="150" y="250" width="100" height="50" as="geometry" />
        </mxCell>
        <mxCell id="ySSf8iGEE_JTQXTmBVZs-90" value="&lt;table cellpadding=&quot;4&quot; cellspacing=&quot;0&quot; border=&quot;0&quot; style=&quot;font-size:1em;width:100%;height:100%;&quot;&gt;&lt;tbody&gt;&lt;tr&gt;&lt;td&gt;YCZ&lt;/td&gt;&lt;/tr&gt;&lt;tr&gt;&lt;td&gt;631.1&lt;/td&gt;&lt;/tr&gt;&lt;/tbody&gt;&lt;/table&gt; " style="html=1;outlineConnect=0;align=center;dashed=0;aspect=fixed;shape=mxgraph.pid2inst.discInst;mounting=room;rotation=0;" parent="ySSf8iGEE_JTQXTmBVZs-89" vertex="1">
          <mxGeometry x="25" y="-30" width="50" height="50" as="geometry" />
        </mxCell>
        <mxCell id="ySSf8iGEE_JTQXTmBVZs-91" value="" style="verticalLabelPosition=bottom;align=center;html=1;verticalAlign=top;pointerEvents=1;dashed=0;shape=mxgraph.pid2valves.valve;valveType=gate;rotation=0;" parent="ySSf8iGEE_JTQXTmBVZs-89" vertex="1">
          <mxGeometry x="40" y="55" width="20" height="10" as="geometry" />
        </mxCell>
        <mxCell id="ySSf8iGEE_JTQXTmBVZs-92" value="" style="endArrow=openThin;html=1;rounded=0;strokeWidth=1;endFill=0;entryX=0.504;entryY=0.496;entryDx=0;entryDy=0;entryPerimeter=0;exitX=0;exitY=0.5;exitDx=0;exitDy=0;endSize=4;startSize=6;jumpSize=6;sourcePerimeterSpacing=-1;startArrow=none;startFill=0;" parent="ySSf8iGEE_JTQXTmBVZs-89" source="ySSf8iGEE_JTQXTmBVZs-94" target="ySSf8iGEE_JTQXTmBVZs-91" edge="1">
          <mxGeometry width="50" height="50" relative="1" as="geometry">
            <mxPoint x="55" y="14" as="sourcePoint" />
            <mxPoint x="55" y="55" as="targetPoint" />
          </mxGeometry>
        </mxCell>
        <mxCell id="ySSf8iGEE_JTQXTmBVZs-93" value="" style="endArrow=none;html=1;rounded=0;entryX=1;entryY=0.5;entryDx=0;entryDy=0;exitX=0.5;exitY=1;exitDx=0;exitDy=0;" parent="ySSf8iGEE_JTQXTmBVZs-89" source="ySSf8iGEE_JTQXTmBVZs-90" target="ySSf8iGEE_JTQXTmBVZs-94" edge="1">
          <mxGeometry width="50" height="50" relative="1" as="geometry">
            <mxPoint x="95" y="135" as="sourcePoint" />
            <mxPoint x="45" y="85" as="targetPoint" />
          </mxGeometry>
        </mxCell>
        <mxCell id="ySSf8iGEE_JTQXTmBVZs-94" value="" style="ellipse;whiteSpace=wrap;html=1;aspect=fixed;rotation=-90;" parent="ySSf8iGEE_JTQXTmBVZs-89" vertex="1">
          <mxGeometry x="45.37" y="36" width="8.75" height="8.75" as="geometry" />
        </mxCell>
        <mxCell id="ySSf8iGEE_JTQXTmBVZs-101" value="" style="group;rotation=-90;" parent="1" vertex="1" connectable="0">
          <mxGeometry x="150" y="360" width="100" height="50" as="geometry" />
        </mxCell>
        <mxCell id="ySSf8iGEE_JTQXTmBVZs-102" value="&lt;table cellpadding=&quot;4&quot; cellspacing=&quot;0&quot; border=&quot;0&quot; style=&quot;font-size:1em;width:100%;height:100%;&quot;&gt;&lt;tbody&gt;&lt;tr&gt;&lt;td&gt;YS&lt;/td&gt;&lt;/tr&gt;&lt;tr&gt;&lt;td&gt;631.2&lt;/td&gt;&lt;/tr&gt;&lt;/tbody&gt;&lt;/table&gt; " style="html=1;outlineConnect=0;align=center;dashed=0;aspect=fixed;shape=mxgraph.pid2inst.discInst;mounting=room;rotation=0;" parent="ySSf8iGEE_JTQXTmBVZs-101" vertex="1">
          <mxGeometry x="25" y="-30" width="50" height="50" as="geometry" />
        </mxCell>
        <mxCell id="ySSf8iGEE_JTQXTmBVZs-103" value="" style="verticalLabelPosition=bottom;align=center;html=1;verticalAlign=top;pointerEvents=1;dashed=0;shape=mxgraph.pid2valves.valve;valveType=gate;rotation=0;" parent="ySSf8iGEE_JTQXTmBVZs-101" vertex="1">
          <mxGeometry x="40" y="55" width="20" height="10" as="geometry" />
        </mxCell>
        <mxCell id="ySSf8iGEE_JTQXTmBVZs-104" value="" style="endArrow=openThin;html=1;rounded=0;strokeWidth=1;endFill=0;entryX=0.504;entryY=0.496;entryDx=0;entryDy=0;entryPerimeter=0;exitX=0;exitY=0.5;exitDx=0;exitDy=0;endSize=4;startSize=6;jumpSize=6;sourcePerimeterSpacing=-1;startArrow=none;startFill=0;" parent="ySSf8iGEE_JTQXTmBVZs-101" source="ySSf8iGEE_JTQXTmBVZs-106" target="ySSf8iGEE_JTQXTmBVZs-103" edge="1">
          <mxGeometry width="50" height="50" relative="1" as="geometry">
            <mxPoint x="55" y="14" as="sourcePoint" />
            <mxPoint x="55" y="55" as="targetPoint" />
          </mxGeometry>
        </mxCell>
        <mxCell id="ySSf8iGEE_JTQXTmBVZs-105" value="" style="endArrow=none;html=1;rounded=0;entryX=1;entryY=0.5;entryDx=0;entryDy=0;exitX=0.5;exitY=1;exitDx=0;exitDy=0;" parent="ySSf8iGEE_JTQXTmBVZs-101" source="ySSf8iGEE_JTQXTmBVZs-102" target="ySSf8iGEE_JTQXTmBVZs-106" edge="1">
          <mxGeometry width="50" height="50" relative="1" as="geometry">
            <mxPoint x="95" y="135" as="sourcePoint" />
            <mxPoint x="45" y="85" as="targetPoint" />
          </mxGeometry>
        </mxCell>
        <mxCell id="ySSf8iGEE_JTQXTmBVZs-106" value="" style="ellipse;whiteSpace=wrap;html=1;aspect=fixed;rotation=-90;" parent="ySSf8iGEE_JTQXTmBVZs-101" vertex="1">
          <mxGeometry x="45.37" y="36" width="8.75" height="8.75" as="geometry" />
        </mxCell>
        <mxCell id="ySSf8iGEE_JTQXTmBVZs-107" value="" style="group;rotation=-90;" parent="1" vertex="1" connectable="0">
          <mxGeometry x="150" y="470" width="100" height="50" as="geometry" />
        </mxCell>
        <mxCell id="ySSf8iGEE_JTQXTmBVZs-108" value="&lt;table cellpadding=&quot;4&quot; cellspacing=&quot;0&quot; border=&quot;0&quot; style=&quot;font-size:1em;width:100%;height:100%;&quot;&gt;&lt;tbody&gt;&lt;tr&gt;&lt;td&gt;YCZ&lt;/td&gt;&lt;/tr&gt;&lt;tr&gt;&lt;td&gt;662.1&lt;/td&gt;&lt;/tr&gt;&lt;/tbody&gt;&lt;/table&gt; " style="html=1;outlineConnect=0;align=center;dashed=0;aspect=fixed;shape=mxgraph.pid2inst.discInst;mounting=room;rotation=0;" parent="ySSf8iGEE_JTQXTmBVZs-107" vertex="1">
          <mxGeometry x="25" y="-30" width="50" height="50" as="geometry" />
        </mxCell>
        <mxCell id="ySSf8iGEE_JTQXTmBVZs-109" value="" style="verticalLabelPosition=bottom;align=center;html=1;verticalAlign=top;pointerEvents=1;dashed=0;shape=mxgraph.pid2valves.valve;valveType=gate;rotation=0;" parent="ySSf8iGEE_JTQXTmBVZs-107" vertex="1">
          <mxGeometry x="40" y="55" width="20" height="10" as="geometry" />
        </mxCell>
        <mxCell id="ySSf8iGEE_JTQXTmBVZs-110" value="" style="endArrow=openThin;html=1;rounded=0;strokeWidth=1;endFill=0;entryX=0.504;entryY=0.496;entryDx=0;entryDy=0;entryPerimeter=0;exitX=0;exitY=0.5;exitDx=0;exitDy=0;endSize=4;startSize=6;jumpSize=6;sourcePerimeterSpacing=-1;startArrow=none;startFill=0;" parent="ySSf8iGEE_JTQXTmBVZs-107" source="ySSf8iGEE_JTQXTmBVZs-112" target="ySSf8iGEE_JTQXTmBVZs-109" edge="1">
          <mxGeometry width="50" height="50" relative="1" as="geometry">
            <mxPoint x="55" y="14" as="sourcePoint" />
            <mxPoint x="55" y="55" as="targetPoint" />
          </mxGeometry>
        </mxCell>
        <mxCell id="ySSf8iGEE_JTQXTmBVZs-111" value="" style="endArrow=none;html=1;rounded=0;entryX=1;entryY=0.5;entryDx=0;entryDy=0;exitX=0.5;exitY=1;exitDx=0;exitDy=0;" parent="ySSf8iGEE_JTQXTmBVZs-107" source="ySSf8iGEE_JTQXTmBVZs-108" target="ySSf8iGEE_JTQXTmBVZs-112" edge="1">
          <mxGeometry width="50" height="50" relative="1" as="geometry">
            <mxPoint x="95" y="135" as="sourcePoint" />
            <mxPoint x="45" y="85" as="targetPoint" />
          </mxGeometry>
        </mxCell>
        <mxCell id="ySSf8iGEE_JTQXTmBVZs-112" value="" style="ellipse;whiteSpace=wrap;html=1;aspect=fixed;rotation=-90;" parent="ySSf8iGEE_JTQXTmBVZs-107" vertex="1">
          <mxGeometry x="45.37" y="36" width="8.75" height="8.75" as="geometry" />
        </mxCell>
        <mxCell id="ySSf8iGEE_JTQXTmBVZs-116" value="&lt;table cellpadding=&quot;4&quot; cellspacing=&quot;0&quot; border=&quot;0&quot; style=&quot;font-size:1em;width:100%;height:100%;&quot;&gt;&lt;tbody&gt;&lt;tr&gt;&lt;td&gt;FIQIRC&lt;/td&gt;&lt;/tr&gt;&lt;tr&gt;&lt;td&gt;662.2&lt;/td&gt;&lt;/tr&gt;&lt;/tbody&gt;&lt;/table&gt; " style="html=1;outlineConnect=0;align=center;dashed=0;aspect=fixed;shape=mxgraph.pid2inst.discInst;mounting=room" parent="1" vertex="1">
          <mxGeometry x="254.25" y="440" width="50" height="50" as="geometry" />
        </mxCell>
        <mxCell id="ySSf8iGEE_JTQXTmBVZs-119" value="" style="endArrow=openThin;html=1;rounded=0;entryX=1;entryY=0.5;entryDx=0;entryDy=0;strokeWidth=1;endFill=0;dashed=1;" parent="1" edge="1">
          <mxGeometry width="50" height="50" relative="1" as="geometry">
            <mxPoint x="254.25" y="464.95000000000005" as="sourcePoint" />
            <mxPoint x="224.25" y="464.95000000000005" as="targetPoint" />
          </mxGeometry>
        </mxCell>
        <mxCell id="f32sUqzUs2OuELiF8NUk-4" value="" style="endArrow=openThin;html=1;rounded=0;entryX=1;entryY=0.5;entryDx=0;entryDy=0;strokeWidth=1;endFill=0;dashed=1;exitX=0.5;exitY=1;exitDx=0;exitDy=0;" parent="1" source="f32sUqzUs2OuELiF8NUk-61" target="f32sUqzUs2OuELiF8NUk-2" edge="1">
          <mxGeometry width="50" height="50" relative="1" as="geometry">
            <mxPoint x="491" y="780" as="sourcePoint" />
            <mxPoint x="-10" y="-30.25999999999999" as="targetPoint" />
            <Array as="points">
              <mxPoint x="516" y="780" />
            </Array>
          </mxGeometry>
        </mxCell>
        <mxCell id="ySSf8iGEE_JTQXTmBVZs-128" value="" style="endArrow=openThin;html=1;rounded=0;entryX=1;entryY=0.5;entryDx=0;entryDy=0;strokeWidth=1;endFill=0;dashed=1;exitX=1;exitY=0.5;exitDx=0;exitDy=0;" parent="1" source="f32sUqzUs2OuELiF8NUk-61" target="ySSf8iGEE_JTQXTmBVZs-102" edge="1">
          <mxGeometry width="50" height="50" relative="1" as="geometry">
            <mxPoint x="540.02" y="780.01" as="sourcePoint" />
            <mxPoint x="241" y="355" as="targetPoint" />
            <Array as="points">
              <mxPoint x="580" y="725" />
              <mxPoint x="580" y="580" />
              <mxPoint x="720" y="580" />
              <mxPoint x="720" y="280" />
              <mxPoint x="510" y="280" />
              <mxPoint x="280" y="280" />
              <mxPoint x="280" y="355" />
            </Array>
          </mxGeometry>
        </mxCell>
        <mxCell id="ySSf8iGEE_JTQXTmBVZs-129" value="" style="html=1;shadow=0;dashed=0;align=center;verticalAlign=middle;shape=mxgraph.arrows2.arrow;dy=0.67;dx=20;notch=0;rotation=-180;direction=west;" parent="1" vertex="1">
          <mxGeometry x="134" y="411.25" width="27.5" height="17.5" as="geometry" />
        </mxCell>
        <mxCell id="ySSf8iGEE_JTQXTmBVZs-130" value="" style="html=1;shadow=0;dashed=0;align=center;verticalAlign=middle;shape=mxgraph.arrows2.arrow;dy=0.67;dx=20;notch=0;rotation=0;direction=west;" parent="1" vertex="1">
          <mxGeometry x="134" y="301.25" width="27.5" height="17.5" as="geometry" />
        </mxCell>
        <mxCell id="ySSf8iGEE_JTQXTmBVZs-131" value="" style="verticalLabelPosition=bottom;outlineConnect=0;align=center;dashed=0;html=1;verticalAlign=top;shape=mxgraph.pid2misc.column;columnType=common" parent="1" vertex="1">
          <mxGeometry x="15" y="360" width="50" height="120" as="geometry" />
        </mxCell>
        <mxCell id="ySSf8iGEE_JTQXTmBVZs-132" value="" style="endArrow=none;html=1;rounded=0;strokeWidth=2;" parent="1" target="ySSf8iGEE_JTQXTmBVZs-131" edge="1">
          <mxGeometry width="50" height="50" relative="1" as="geometry">
            <mxPoint x="80" y="530" as="sourcePoint" />
            <mxPoint x="40" y="490" as="targetPoint" />
            <Array as="points">
              <mxPoint x="40" y="530" />
            </Array>
          </mxGeometry>
        </mxCell>
        <mxCell id="ySSf8iGEE_JTQXTmBVZs-133" value="&lt;table cellpadding=&quot;4&quot; cellspacing=&quot;0&quot; border=&quot;0&quot; style=&quot;font-size:1em;width:100%;height:100%;&quot;&gt;&lt;tbody&gt;&lt;tr&gt;&lt;td&gt;LDIR&lt;/td&gt;&lt;/tr&gt;&lt;tr&gt;&lt;td&gt;662.3&lt;/td&gt;&lt;/tr&gt;&lt;/tbody&gt;&lt;/table&gt; " style="html=1;outlineConnect=0;align=center;dashed=0;aspect=fixed;shape=mxgraph.pid2inst.discInst;mounting=room;rotation=0;" parent="1" vertex="1">
          <mxGeometry x="34.37" y="287.5" width="45" height="45" as="geometry" />
        </mxCell>
        <mxCell id="ySSf8iGEE_JTQXTmBVZs-134" value="" style="endArrow=none;html=1;rounded=0;entryX=0.5;entryY=1;entryDx=0;entryDy=0;exitX=0.873;exitY=1.223;exitDx=0;exitDy=0;exitPerimeter=0;" parent="1" source="VfsL_7dME3LPpbaMWjn1-1" target="ySSf8iGEE_JTQXTmBVZs-133" edge="1">
          <mxGeometry width="50" height="50" relative="1" as="geometry">
            <mxPoint x="53" y="410" as="sourcePoint" />
            <mxPoint x="130" y="320" as="targetPoint" />
          </mxGeometry>
        </mxCell>
        <mxCell id="ySSf8iGEE_JTQXTmBVZs-135" value="M" style="dashed=0;outlineConnect=0;align=center;html=1;shape=mxgraph.pid.engines.electric_motor;fontSize=10;aspect=fixed;" parent="1" vertex="1">
          <mxGeometry x="345" y="370" width="50" height="50" as="geometry" />
        </mxCell>
        <mxCell id="ySSf8iGEE_JTQXTmBVZs-136" value="&lt;table cellpadding=&quot;4&quot; cellspacing=&quot;0&quot; border=&quot;0&quot; style=&quot;font-size:1em;width:100%;height:100%;&quot;&gt;&lt;tbody&gt;&lt;tr&gt;&lt;td&gt;NRS&lt;/td&gt;&lt;/tr&gt;&lt;tr&gt;&lt;td&gt;601.1&lt;/td&gt;&lt;/tr&gt;&lt;/tbody&gt;&lt;/table&gt; " style="html=1;outlineConnect=0;align=center;dashed=0;aspect=fixed;shape=mxgraph.pid2inst.discInst;mounting=room;rotation=0;" parent="1" vertex="1">
          <mxGeometry x="345" y="285" width="50" height="50" as="geometry" />
        </mxCell>
        <mxCell id="ySSf8iGEE_JTQXTmBVZs-137" value="" style="endArrow=none;html=1;rounded=0;entryX=0.5;entryY=1;entryDx=0;entryDy=0;entryPerimeter=0;exitX=0.501;exitY=-0.004;exitDx=0;exitDy=0;exitPerimeter=0;" parent="1" source="V65Pgfr2PafZW6ia5RiM-1" target="ySSf8iGEE_JTQXTmBVZs-135" edge="1">
          <mxGeometry width="50" height="50" relative="1" as="geometry">
            <mxPoint x="360" y="520" as="sourcePoint" />
            <mxPoint x="410" y="470" as="targetPoint" />
          </mxGeometry>
        </mxCell>
        <mxCell id="ySSf8iGEE_JTQXTmBVZs-138" value="" style="endArrow=none;html=1;rounded=0;entryX=0.5;entryY=1;entryDx=0;entryDy=0;" parent="1" source="ySSf8iGEE_JTQXTmBVZs-135" target="ySSf8iGEE_JTQXTmBVZs-136" edge="1">
          <mxGeometry width="50" height="50" relative="1" as="geometry">
            <mxPoint x="430" y="440" as="sourcePoint" />
            <mxPoint x="480" y="390" as="targetPoint" />
          </mxGeometry>
        </mxCell>
        <mxCell id="ySSf8iGEE_JTQXTmBVZs-139" value="" style="endArrow=none;html=1;rounded=0;entryX=0.5;entryY=1;entryDx=0;entryDy=0;" parent="1" edge="1">
          <mxGeometry width="50" height="50" relative="1" as="geometry">
            <mxPoint x="335" y="560" as="sourcePoint" />
            <mxPoint x="335" y="270" as="targetPoint" />
          </mxGeometry>
        </mxCell>
        <mxCell id="ySSf8iGEE_JTQXTmBVZs-141" value="" style="endArrow=none;html=1;rounded=0;entryX=0.5;entryY=1;entryDx=0;entryDy=0;" parent="1" edge="1">
          <mxGeometry width="50" height="50" relative="1" as="geometry">
            <mxPoint x="405" y="560" as="sourcePoint" />
            <mxPoint x="405" y="270" as="targetPoint" />
          </mxGeometry>
        </mxCell>
        <mxCell id="ySSf8iGEE_JTQXTmBVZs-142" value="&lt;table cellpadding=&quot;4&quot; cellspacing=&quot;0&quot; border=&quot;0&quot; style=&quot;font-size:1em;width:100%;height:100%;&quot;&gt;&lt;tbody&gt;&lt;tr&gt;&lt;td&gt;LIRC&lt;/td&gt;&lt;/tr&gt;&lt;tr&gt;&lt;td&gt;603&lt;/td&gt;&lt;/tr&gt;&lt;/tbody&gt;&lt;/table&gt; " style="html=1;outlineConnect=0;align=center;dashed=0;aspect=fixed;shape=mxgraph.pid2inst.discInst;mounting=room;rotation=0;" parent="1" vertex="1">
          <mxGeometry x="380" y="220" width="50" height="50" as="geometry" />
        </mxCell>
        <mxCell id="ySSf8iGEE_JTQXTmBVZs-143" value="&lt;table cellpadding=&quot;4&quot; cellspacing=&quot;0&quot; border=&quot;0&quot; style=&quot;font-size:1em;width:100%;height:100%;&quot;&gt;&lt;tbody&gt;&lt;tr&gt;&lt;td&gt;UCS&lt;/td&gt;&lt;/tr&gt;&lt;tr&gt;&lt;td&gt;600&lt;/td&gt;&lt;/tr&gt;&lt;/tbody&gt;&lt;/table&gt; " style="html=1;outlineConnect=0;align=center;dashed=0;aspect=fixed;shape=mxgraph.pid2inst.compFunc;mounting=room" parent="1" vertex="1">
          <mxGeometry x="476" y="220" width="50" height="50" as="geometry" />
        </mxCell>
        <mxCell id="ySSf8iGEE_JTQXTmBVZs-144" value="" style="endArrow=openThin;html=1;rounded=0;exitX=1;exitY=0.5;exitDx=0;exitDy=0;dashed=1;endFill=0;" parent="1" source="ySSf8iGEE_JTQXTmBVZs-142" target="ySSf8iGEE_JTQXTmBVZs-143" edge="1">
          <mxGeometry width="50" height="50" relative="1" as="geometry">
            <mxPoint x="426" y="290" as="sourcePoint" />
            <mxPoint x="476" y="240" as="targetPoint" />
          </mxGeometry>
        </mxCell>
        <mxCell id="ySSf8iGEE_JTQXTmBVZs-145" value="" style="endArrow=openThin;html=1;rounded=0;entryX=1;entryY=0.5;entryDx=0;entryDy=0;exitX=0;exitY=0.5;exitDx=0;exitDy=0;dashed=1;endFill=0;" parent="1" target="ySSf8iGEE_JTQXTmBVZs-90" edge="1">
          <mxGeometry width="50" height="50" relative="1" as="geometry">
            <mxPoint x="310" y="245" as="sourcePoint" />
            <mxPoint x="360" y="340" as="targetPoint" />
          </mxGeometry>
        </mxCell>
        <mxCell id="ySSf8iGEE_JTQXTmBVZs-146" value="&lt;table cellpadding=&quot;4&quot; cellspacing=&quot;0&quot; border=&quot;0&quot; style=&quot;font-size:1em;width:100%;height:100%;&quot;&gt;&lt;tbody&gt;&lt;tr&gt;&lt;td&gt;UCS&lt;/td&gt;&lt;/tr&gt;&lt;tr&gt;&lt;td&gt;680&lt;/td&gt;&lt;/tr&gt;&lt;/tbody&gt;&lt;/table&gt; " style="html=1;outlineConnect=0;align=center;dashed=0;aspect=fixed;shape=mxgraph.pid2inst.compFunc;mounting=room" parent="1" vertex="1">
          <mxGeometry x="531" y="1110" width="50" height="50" as="geometry" />
        </mxCell>
        <mxCell id="ySSf8iGEE_JTQXTmBVZs-147" value="" style="endArrow=openThin;html=1;rounded=0;entryX=0.5;entryY=1;entryDx=0;entryDy=0;dashed=1;endFill=0;" parent="1" target="f32sUqzUs2OuELiF8NUk-48" edge="1">
          <mxGeometry width="50" height="50" relative="1" as="geometry">
            <mxPoint x="350" y="1135" as="sourcePoint" />
            <mxPoint x="350" y="1070" as="targetPoint" />
            <Array as="points">
              <mxPoint x="350" y="1135" />
            </Array>
          </mxGeometry>
        </mxCell>
        <mxCell id="f32sUqzUs2OuELiF8NUk-47" value="" style="endArrow=none;html=1;rounded=0;exitX=1;exitY=0.5;exitDx=0;exitDy=0;entryX=0;entryY=0.5;entryDx=0;entryDy=0;" parent="1" source="f32sUqzUs2OuELiF8NUk-46" target="f32sUqzUs2OuELiF8NUk-48" edge="1">
          <mxGeometry width="50" height="50" relative="1" as="geometry">
            <mxPoint x="260.5" y="1055" as="sourcePoint" />
            <mxPoint x="323" y="1030" as="targetPoint" />
          </mxGeometry>
        </mxCell>
        <mxCell id="ySSf8iGEE_JTQXTmBVZs-148" value="" style="endArrow=openThin;html=1;rounded=0;entryX=0.5;entryY=1;entryDx=0;entryDy=0;exitX=0.5;exitY=0;exitDx=0;exitDy=0;dashed=1;endFill=0;" parent="1" source="ySSf8iGEE_JTQXTmBVZs-146" target="f32sUqzUs2OuELiF8NUk-34" edge="1">
          <mxGeometry width="50" height="50" relative="1" as="geometry">
            <mxPoint x="570" y="1190" as="sourcePoint" />
            <mxPoint x="620" y="1140" as="targetPoint" />
          </mxGeometry>
        </mxCell>
        <mxCell id="ySSf8iGEE_JTQXTmBVZs-149" value="" style="endArrow=openThin;html=1;rounded=0;exitX=1;exitY=0.5;exitDx=0;exitDy=0;entryX=0.5;entryY=0;entryDx=0;entryDy=0;dashed=1;endFill=0;" parent="1" source="ySSf8iGEE_JTQXTmBVZs-17" target="ySSf8iGEE_JTQXTmBVZs-27" edge="1">
          <mxGeometry width="50" height="50" relative="1" as="geometry">
            <mxPoint x="670" y="800" as="sourcePoint" />
            <mxPoint x="720" y="750" as="targetPoint" />
            <Array as="points">
              <mxPoint x="560" y="580" />
              <mxPoint x="560" y="630" />
              <mxPoint x="660" y="630" />
            </Array>
          </mxGeometry>
        </mxCell>
        <mxCell id="ySSf8iGEE_JTQXTmBVZs-150" value="" style="endArrow=openThin;html=1;rounded=0;exitX=1;exitY=0.5;exitDx=0;exitDy=0;entryX=1;entryY=0.5;entryDx=0;entryDy=0;dashed=1;endFill=0;" parent="1" source="ySSf8iGEE_JTQXTmBVZs-27" target="ySSf8iGEE_JTQXTmBVZs-146" edge="1">
          <mxGeometry width="50" height="50" relative="1" as="geometry">
            <mxPoint x="700" y="740" as="sourcePoint" />
            <mxPoint x="720" y="1130" as="targetPoint" />
            <Array as="points">
              <mxPoint x="720" y="725" />
              <mxPoint x="720" y="1135" />
            </Array>
          </mxGeometry>
        </mxCell>
        <mxCell id="ySSf8iGEE_JTQXTmBVZs-27" value="&lt;table cellpadding=&quot;4&quot; cellspacing=&quot;0&quot; border=&quot;0&quot; style=&quot;font-size:1em;width:100%;height:100%;&quot;&gt;&lt;tbody&gt;&lt;tr&gt;&lt;td&gt;TPRIC&lt;/td&gt;&lt;/tr&gt;&lt;tr&gt;&lt;td&gt;684.1&lt;/td&gt;&lt;/tr&gt;&lt;/tbody&gt;&lt;/table&gt; " style="html=1;outlineConnect=0;align=center;dashed=0;aspect=fixed;shape=mxgraph.pid2inst.discInst;mounting=room" parent="1" vertex="1">
          <mxGeometry x="636" y="700" width="50" height="50" as="geometry" />
        </mxCell>
        <mxCell id="ySSf8iGEE_JTQXTmBVZs-28" value="&lt;font style=&quot;font-size: 7px;&quot;&gt;ASH&lt;/font&gt;" style="text;html=1;strokeColor=none;fillColor=none;align=center;verticalAlign=middle;whiteSpace=wrap;rounded=0;" parent="1" vertex="1">
          <mxGeometry x="666" y="700" width="60" height="30" as="geometry" />
        </mxCell>
        <mxCell id="ySSf8iGEE_JTQXTmBVZs-152" value="&lt;table cellpadding=&quot;4&quot; cellspacing=&quot;0&quot; border=&quot;0&quot; style=&quot;font-size:1em;width:100%;height:100%;&quot;&gt;&lt;tbody&gt;&lt;tr&gt;&lt;td&gt;SI&lt;/td&gt;&lt;/tr&gt;&lt;tr&gt;&lt;td&gt;601.2&lt;/td&gt;&lt;/tr&gt;&lt;/tbody&gt;&lt;/table&gt; " style="html=1;outlineConnect=0;align=center;dashed=0;aspect=fixed;shape=mxgraph.pid2inst.discInst;mounting=room;rotation=0;" parent="1" vertex="1">
          <mxGeometry x="410" y="320" width="50" height="50" as="geometry" />
        </mxCell>
        <mxCell id="ySSf8iGEE_JTQXTmBVZs-153" value="" style="endArrow=none;html=1;rounded=0;entryX=0.5;entryY=1;entryDx=0;entryDy=0;exitX=1;exitY=0.5;exitDx=0;exitDy=0;exitPerimeter=0;" parent="1" source="ySSf8iGEE_JTQXTmBVZs-135" target="ySSf8iGEE_JTQXTmBVZs-152" edge="1">
          <mxGeometry width="50" height="50" relative="1" as="geometry">
            <mxPoint x="380" y="420" as="sourcePoint" />
            <mxPoint x="430" y="370" as="targetPoint" />
            <Array as="points">
              <mxPoint x="435" y="395" />
            </Array>
          </mxGeometry>
        </mxCell>
        <mxCell id="ySSf8iGEE_JTQXTmBVZs-154" value="" style="endArrow=none;html=1;rounded=0;entryX=0.5;entryY=1;entryDx=0;entryDy=0;entryPerimeter=0;strokeWidth=2;" parent="1" target="f32sUqzUs2OuELiF8NUk-23" edge="1">
          <mxGeometry width="50" height="50" relative="1" as="geometry">
            <mxPoint x="590" y="910" as="sourcePoint" />
            <mxPoint x="390" y="880" as="targetPoint" />
          </mxGeometry>
        </mxCell>
        <mxCell id="HCYyIv4dLpg14kQg2cRF-2" value="" style="group" parent="1" vertex="1" connectable="0">
          <mxGeometry x="312" y="220" width="90" height="50" as="geometry" />
        </mxCell>
        <mxCell id="HCYyIv4dLpg14kQg2cRF-3" value="&lt;table cellpadding=&quot;4&quot; cellspacing=&quot;0&quot; border=&quot;0&quot; style=&quot;font-size:1em;width:100%;height:100%;&quot;&gt;&lt;tbody&gt;&lt;tr&gt;&lt;td&gt;PIRC&lt;/td&gt;&lt;/tr&gt;&lt;tr&gt;&lt;td&gt;602&lt;/td&gt;&lt;/tr&gt;&lt;/tbody&gt;&lt;/table&gt; " style="html=1;outlineConnect=0;align=center;dashed=0;aspect=fixed;shape=mxgraph.pid2inst.discInst;mounting=room" parent="HCYyIv4dLpg14kQg2cRF-2" vertex="1">
          <mxGeometry width="50" height="50" as="geometry" />
        </mxCell>
        <mxCell id="HCYyIv4dLpg14kQg2cRF-4" value="&lt;span style=&quot;font-size: 7px;&quot;&gt;AH&lt;/span&gt;" style="text;html=1;strokeColor=none;fillColor=none;align=center;verticalAlign=top;whiteSpace=wrap;rounded=0;" parent="1" vertex="1">
          <mxGeometry x="270" y="220" width="60" height="30" as="geometry" />
        </mxCell>
        <mxCell id="HCYyIv4dLpg14kQg2cRF-5" value="&lt;font style=&quot;font-size: 7px;&quot;&gt;ZHH&lt;/font&gt;" style="text;html=1;strokeColor=none;fillColor=none;align=center;verticalAlign=top;whiteSpace=wrap;rounded=0;" parent="1" vertex="1">
          <mxGeometry x="270" y="210" width="60" height="30" as="geometry" />
        </mxCell>
        <mxCell id="HCYyIv4dLpg14kQg2cRF-6" value="" style="endArrow=openThin;html=1;rounded=0;entryX=1;entryY=0.5;entryDx=0;entryDy=0;strokeWidth=1;endFill=0;dashed=1;" parent="1" edge="1">
          <mxGeometry width="50" height="50" relative="1" as="geometry">
            <mxPoint x="556" y="344.76000000000005" as="sourcePoint" />
            <mxPoint x="526" y="344.76000000000005" as="targetPoint" />
          </mxGeometry>
        </mxCell>
        <mxCell id="ySSf8iGEE_JTQXTmBVZs-79" value="&lt;table cellpadding=&quot;4&quot; cellspacing=&quot;0&quot; border=&quot;0&quot; style=&quot;font-size:1em;width:100%;height:100%;&quot;&gt;&lt;tbody&gt;&lt;tr&gt;&lt;td&gt;FIQIRC&lt;/td&gt;&lt;/tr&gt;&lt;tr&gt;&lt;td&gt;621&lt;/td&gt;&lt;/tr&gt;&lt;/tbody&gt;&lt;/table&gt; " style="html=1;outlineConnect=0;align=center;dashed=0;aspect=fixed;shape=mxgraph.pid2inst.discInst;mounting=room" parent="1" vertex="1">
          <mxGeometry x="551" y="320" width="50" height="50" as="geometry" />
        </mxCell>
        <mxCell id="HCYyIv4dLpg14kQg2cRF-7" value="" style="endArrow=openThin;html=1;rounded=0;entryX=1;entryY=0.5;entryDx=0;entryDy=0;strokeWidth=1;endFill=0;dashed=1;" parent="1" edge="1">
          <mxGeometry width="50" height="50" relative="1" as="geometry">
            <mxPoint x="556" y="454.90000000000003" as="sourcePoint" />
            <mxPoint x="526" y="454.90000000000003" as="targetPoint" />
          </mxGeometry>
        </mxCell>
        <mxCell id="ySSf8iGEE_JTQXTmBVZs-80" value="&lt;table cellpadding=&quot;4&quot; cellspacing=&quot;0&quot; border=&quot;0&quot; style=&quot;font-size:1em;width:100%;height:100%;&quot;&gt;&lt;tbody&gt;&lt;tr&gt;&lt;td&gt;FIQIRC&lt;/td&gt;&lt;/tr&gt;&lt;tr&gt;&lt;td&gt;611&lt;/td&gt;&lt;/tr&gt;&lt;/tbody&gt;&lt;/table&gt; " style="html=1;outlineConnect=0;align=center;dashed=0;aspect=fixed;shape=mxgraph.pid2inst.discInst;mounting=room" parent="1" vertex="1">
          <mxGeometry x="551" y="430" width="50" height="50" as="geometry" />
        </mxCell>
        <mxCell id="HCYyIv4dLpg14kQg2cRF-8" value="" style="endArrow=openThin;html=1;rounded=0;exitX=0.5;exitY=1;exitDx=0;exitDy=0;endFill=0;dashed=1;" parent="1" source="ySSf8iGEE_JTQXTmBVZs-143" target="ySSf8iGEE_JTQXTmBVZs-52" edge="1">
          <mxGeometry width="50" height="50" relative="1" as="geometry">
            <mxPoint x="456" y="335" as="sourcePoint" />
            <mxPoint x="506" y="285" as="targetPoint" />
          </mxGeometry>
        </mxCell>
        <mxCell id="HCYyIv4dLpg14kQg2cRF-10" value="" style="endArrow=openThin;startArrow=openThin;html=1;rounded=0;dashed=1;endFill=0;startFill=0;exitX=0.5;exitY=0;exitDx=0;exitDy=0;" parent="1" source="ySSf8iGEE_JTQXTmBVZs-108" edge="1">
          <mxGeometry width="50" height="50" relative="1" as="geometry">
            <mxPoint x="200" y="430" as="sourcePoint" />
            <mxPoint x="500" y="430" as="targetPoint" />
            <Array as="points">
              <mxPoint x="200" y="430" />
              <mxPoint x="120" y="430" />
              <mxPoint x="120" y="200" />
              <mxPoint x="760" y="200" />
              <mxPoint x="760" y="420" />
              <mxPoint x="500" y="420" />
            </Array>
          </mxGeometry>
        </mxCell>
        <mxCell id="HCYyIv4dLpg14kQg2cRF-11" value="" style="endArrow=openThin;html=1;rounded=0;exitX=1;exitY=0.5;exitDx=0;exitDy=0;endFill=0;dashed=1;" parent="1" source="ySSf8iGEE_JTQXTmBVZs-143" edge="1">
          <mxGeometry width="50" height="50" relative="1" as="geometry">
            <mxPoint x="550" y="400" as="sourcePoint" />
            <mxPoint x="760" y="245" as="targetPoint" />
          </mxGeometry>
        </mxCell>
        <mxCell id="HCYyIv4dLpg14kQg2cRF-12" value="&lt;span style=&quot;font-size: 7px;&quot;&gt;AL&lt;/span&gt;" style="text;html=1;strokeColor=none;fillColor=none;align=center;verticalAlign=top;whiteSpace=wrap;rounded=0;" parent="1" vertex="1">
          <mxGeometry x="414" y="360" width="60" height="30" as="geometry" />
        </mxCell>
        <mxCell id="VfsL_7dME3LPpbaMWjn1-1" value="BE62" style="text;html=1;strokeColor=none;fillColor=none;align=center;verticalAlign=middle;whiteSpace=wrap;rounded=0;" parent="1" vertex="1">
          <mxGeometry x="5" y="371.25" width="60" height="30" as="geometry" />
        </mxCell>
        <mxCell id="VfsL_7dME3LPpbaMWjn1-2" value="BR603" style="text;html=1;strokeColor=none;fillColor=none;align=center;verticalAlign=middle;whiteSpace=wrap;rounded=0;" parent="1" vertex="1">
          <mxGeometry x="312" y="585" width="60" height="30" as="geometry" />
        </mxCell>
        <mxCell id="VfsL_7dME3LPpbaMWjn1-3" value="" style="endArrow=openThin;html=1;rounded=0;entryX=0.5;entryY=1;entryDx=0;entryDy=0;endFill=0;dashed=1;startArrow=openThin;startFill=0;exitX=0;exitY=0.5;exitDx=0;exitDy=0;" parent="1" source="ySSf8iGEE_JTQXTmBVZs-146" target="f32sUqzUs2OuELiF8NUk-57" edge="1">
          <mxGeometry width="50" height="50" relative="1" as="geometry">
            <mxPoint x="126" y="1140" as="sourcePoint" />
            <mxPoint x="161.5" y="885" as="targetPoint" />
            <Array as="points">
              <mxPoint x="126" y="1135" />
              <mxPoint x="126" y="860" />
            </Array>
          </mxGeometry>
        </mxCell>
        <mxCell id="VfsL_7dME3LPpbaMWjn1-4" value="" style="endArrow=none;html=1;rounded=0;entryX=0.113;entryY=0.267;entryDx=0;entryDy=0;entryPerimeter=0;strokeWidth=2;exitX=0.001;exitY=0.498;exitDx=0;exitDy=0;exitPerimeter=0;" parent="1" source="VfsL_7dME3LPpbaMWjn1-7" target="V65Pgfr2PafZW6ia5RiM-1" edge="1">
          <mxGeometry width="50" height="50" relative="1" as="geometry">
            <mxPoint x="160" y="550" as="sourcePoint" />
            <mxPoint x="290" y="580" as="targetPoint" />
          </mxGeometry>
        </mxCell>
        <mxCell id="VfsL_7dME3LPpbaMWjn1-11" value="" style="group;rotation=90;" parent="1" vertex="1" connectable="0">
          <mxGeometry x="90" y="570" width="109.5" height="79" as="geometry" />
        </mxCell>
        <mxCell id="VfsL_7dME3LPpbaMWjn1-12" value="" style="endArrow=none;html=1;rounded=0;strokeWidth=2;entryX=0.997;entryY=0.498;entryDx=0;entryDy=0;entryPerimeter=0;" parent="VfsL_7dME3LPpbaMWjn1-11" target="VfsL_7dME3LPpbaMWjn1-7" edge="1">
          <mxGeometry width="50" height="50" relative="1" as="geometry">
            <mxPoint x="-50.60150146484375" y="-20" as="sourcePoint" />
            <mxPoint x="-30" y="-20" as="targetPoint" />
          </mxGeometry>
        </mxCell>
        <mxCell id="VfsL_7dME3LPpbaMWjn1-13" value="" style="endArrow=none;html=1;rounded=0;exitX=0.5;exitY=0;exitDx=0;exitDy=0;" parent="VfsL_7dME3LPpbaMWjn1-11" source="VfsL_7dME3LPpbaMWjn1-15" edge="1">
          <mxGeometry width="50" height="50" relative="1" as="geometry">
            <mxPoint x="46.75" y="29" as="sourcePoint" />
            <mxPoint x="52.75" y="-21" as="targetPoint" />
          </mxGeometry>
        </mxCell>
        <mxCell id="VfsL_7dME3LPpbaMWjn1-15" value="&lt;table cellpadding=&quot;4&quot; cellspacing=&quot;0&quot; border=&quot;0&quot; style=&quot;font-size:1em;width:100%;height:100%;&quot;&gt;&lt;tbody&gt;&lt;tr&gt;&lt;td&gt;FQC&lt;/td&gt;&lt;/tr&gt;&lt;tr&gt;&lt;td&gt;692&lt;/td&gt;&lt;/tr&gt;&lt;/tbody&gt;&lt;/table&gt; " style="html=1;outlineConnect=0;align=center;dashed=0;aspect=fixed;shape=mxgraph.pid2inst.discInst;mounting=room" parent="VfsL_7dME3LPpbaMWjn1-11" vertex="1">
          <mxGeometry x="27.75" y="29" width="50" height="50" as="geometry" />
        </mxCell>
        <mxCell id="VfsL_7dME3LPpbaMWjn1-16" value="" style="endArrow=openThin;html=1;rounded=0;exitX=0;exitY=0.5;exitDx=0;exitDy=0;entryX=1;entryY=0.5;entryDx=0;entryDy=0;endFill=0;dashed=1;" parent="1" source="VfsL_7dME3LPpbaMWjn1-15" target="VfsL_7dME3LPpbaMWjn1-9" edge="1">
          <mxGeometry width="50" height="50" relative="1" as="geometry">
            <mxPoint x="19" y="710" as="sourcePoint" />
            <mxPoint x="104.00999999999999" y="725" as="targetPoint" />
          </mxGeometry>
        </mxCell>
        <mxCell id="VfsL_7dME3LPpbaMWjn1-17" value="" style="html=1;shadow=0;dashed=0;align=center;verticalAlign=middle;shape=mxgraph.arrows2.arrow;dy=0.67;dx=20;notch=0;rotation=-180;direction=west;" parent="1" vertex="1">
          <mxGeometry x="13" y="541.25" width="27.5" height="17.5" as="geometry" />
        </mxCell>
        <mxCell id="VfsL_7dME3LPpbaMWjn1-18" value="Inertgas" style="text;html=1;strokeColor=none;fillColor=none;align=center;verticalAlign=middle;whiteSpace=wrap;rounded=0;" parent="1" vertex="1">
          <mxGeometry x="117.75" y="388.75" width="60" height="30" as="geometry" />
        </mxCell>
        <mxCell id="VfsL_7dME3LPpbaMWjn1-19" value="Entlüftung" style="text;html=1;strokeColor=none;fillColor=none;align=center;verticalAlign=middle;whiteSpace=wrap;rounded=0;" parent="1" vertex="1">
          <mxGeometry x="117.75" y="280" width="60" height="30" as="geometry" />
        </mxCell>
        <mxCell id="VfsL_7dME3LPpbaMWjn1-20" value="Reinigung" style="text;html=1;strokeColor=none;fillColor=none;align=center;verticalAlign=middle;whiteSpace=wrap;rounded=0;" parent="1" vertex="1">
          <mxGeometry x="-3.25" y="554" width="60" height="30" as="geometry" />
        </mxCell>
        <mxCell id="VfsL_7dME3LPpbaMWjn1-21" value="" style="endArrow=none;html=1;rounded=0;entryX=0.5;entryY=1;entryDx=0;entryDy=0;" parent="1" target="ySSf8iGEE_JTQXTmBVZs-116" edge="1">
          <mxGeometry width="50" height="50" relative="1" as="geometry">
            <mxPoint x="280" y="530" as="sourcePoint" />
            <mxPoint x="390" y="500" as="targetPoint" />
          </mxGeometry>
        </mxCell>
        <mxCell id="VfsL_7dME3LPpbaMWjn1-6" value="" style="ellipse;whiteSpace=wrap;html=1;aspect=fixed;rotation=90;" parent="1" vertex="1">
          <mxGeometry x="70.61999999999999" y="563" width="8.75" height="8.75" as="geometry" />
        </mxCell>
        <mxCell id="VfsL_7dME3LPpbaMWjn1-7" value="" style="verticalLabelPosition=bottom;align=center;html=1;verticalAlign=top;pointerEvents=1;dashed=0;shape=mxgraph.pid2valves.valve;valveType=gate;rotation=180;" parent="1" vertex="1">
          <mxGeometry x="64.99" y="545" width="20" height="10" as="geometry" />
        </mxCell>
        <mxCell id="VfsL_7dME3LPpbaMWjn1-8" value="" style="endArrow=openThin;html=1;rounded=0;strokeWidth=1;endFill=0;exitX=0;exitY=0.5;exitDx=0;exitDy=0;endSize=4;startSize=6;jumpSize=6;sourcePerimeterSpacing=-1;startArrow=none;startFill=0;entryX=0.501;entryY=0.477;entryDx=0;entryDy=0;entryPerimeter=0;" parent="1" source="VfsL_7dME3LPpbaMWjn1-6" target="VfsL_7dME3LPpbaMWjn1-7" edge="1">
          <mxGeometry width="50" height="50" relative="1" as="geometry">
            <mxPoint x="69.99" y="595" as="sourcePoint" />
            <mxPoint x="80" y="560" as="targetPoint" />
          </mxGeometry>
        </mxCell>
        <mxCell id="VfsL_7dME3LPpbaMWjn1-9" value="&lt;table cellpadding=&quot;4&quot; cellspacing=&quot;0&quot; border=&quot;0&quot; style=&quot;font-size:1em;width:100%;height:100%;&quot;&gt;&lt;tbody&gt;&lt;tr&gt;&lt;td&gt;YS&lt;/td&gt;&lt;/tr&gt;&lt;tr&gt;&lt;td&gt;691&lt;/td&gt;&lt;/tr&gt;&lt;/tbody&gt;&lt;/table&gt; " style="html=1;outlineConnect=0;align=center;dashed=0;aspect=fixed;shape=mxgraph.pid2inst.discInst;mounting=room;rotation=0;" parent="1" vertex="1">
          <mxGeometry x="49.99999999999999" y="599" width="50" height="50" as="geometry" />
        </mxCell>
        <mxCell id="VfsL_7dME3LPpbaMWjn1-10" value="" style="endArrow=none;html=1;rounded=0;exitX=1;exitY=0.5;exitDx=0;exitDy=0;entryX=0.5;entryY=0;entryDx=0;entryDy=0;" parent="1" source="VfsL_7dME3LPpbaMWjn1-6" target="VfsL_7dME3LPpbaMWjn1-9" edge="1">
          <mxGeometry width="50" height="50" relative="1" as="geometry">
            <mxPoint x="44.989999999999995" y="534" as="sourcePoint" />
            <mxPoint x="69.99" y="597" as="targetPoint" />
          </mxGeometry>
        </mxCell>
        <mxCell id="VfsL_7dME3LPpbaMWjn1-23" value="" style="endArrow=openThin;html=1;rounded=0;exitX=1;exitY=0.5;exitDx=0;exitDy=0;entryX=0;entryY=0.5;entryDx=0;entryDy=0;dashed=1;endFill=0;" parent="1" source="ySSf8iGEE_JTQXTmBVZs-133" target="ySSf8iGEE_JTQXTmBVZs-108" edge="1">
          <mxGeometry width="50" height="50" relative="1" as="geometry">
            <mxPoint x="120" y="370" as="sourcePoint" />
            <mxPoint x="170" y="320" as="targetPoint" />
            <Array as="points">
              <mxPoint x="100" y="310" />
              <mxPoint x="100" y="320" />
              <mxPoint x="100" y="465" />
            </Array>
          </mxGeometry>
        </mxCell>
        <mxCell id="VfsL_7dME3LPpbaMWjn1-25" value="" style="endArrow=openThin;html=1;rounded=0;entryX=0.5;entryY=1;entryDx=0;entryDy=0;dashed=1;endFill=0;" parent="1" target="ySSf8iGEE_JTQXTmBVZs-1" edge="1">
          <mxGeometry width="50" height="50" relative="1" as="geometry">
            <mxPoint x="560" y="1100" as="sourcePoint" />
            <mxPoint x="720" y="1020" as="targetPoint" />
            <Array as="points">
              <mxPoint x="661" y="1100" />
            </Array>
          </mxGeometry>
        </mxCell>
        <mxCell id="VfsL_7dME3LPpbaMWjn1-26" value="&lt;font style=&quot;font-size: 7px;&quot;&gt;ASL&lt;/font&gt;" style="text;html=1;strokeColor=none;fillColor=none;align=center;verticalAlign=middle;whiteSpace=wrap;rounded=0;" parent="1" vertex="1">
          <mxGeometry x="130" y="835" width="60" height="30" as="geometry" />
        </mxCell>
        <mxCell id="VfsL_7dME3LPpbaMWjn1-27" value="&lt;font style=&quot;font-size: 7px;&quot;&gt;ASH&lt;/font&gt;" style="text;html=1;strokeColor=none;fillColor=none;align=center;verticalAlign=middle;whiteSpace=wrap;rounded=0;" parent="1" vertex="1">
          <mxGeometry x="407.25" y="220" width="60" height="30" as="geometry" />
        </mxCell>
        <mxCell id="VfsL_7dME3LPpbaMWjn1-29" value="" style="verticalLabelPosition=bottom;outlineConnect=0;align=center;dashed=0;html=1;verticalAlign=top;shape=mxgraph.pid.misc.tank_car,_tank_wagon;" parent="1" vertex="1">
          <mxGeometry x="318.25" y="820" width="103.5" height="60" as="geometry" />
        </mxCell>
        <mxCell id="VfsL_7dME3LPpbaMWjn1-30" value="" style="endArrow=openThin;html=1;rounded=0;entryX=0.5;entryY=0;entryDx=0;entryDy=0;endFill=0;dashed=1;" parent="1" target="ySSf8iGEE_JTQXTmBVZs-90" edge="1">
          <mxGeometry width="50" height="50" relative="1" as="geometry">
            <mxPoint x="200" y="200" as="sourcePoint" />
            <mxPoint x="270" y="260" as="targetPoint" />
          </mxGeometry>
        </mxCell>
        <mxCell id="HQ6MN_hSqYb_atXboHKv-2" value="" style="endArrow=openThin;html=1;rounded=0;exitX=0.667;exitY=0.833;exitDx=0;exitDy=0;exitPerimeter=0;dashed=1;endFill=0;" parent="1" source="VfsL_7dME3LPpbaMWjn1-26" edge="1">
          <mxGeometry width="50" height="50" relative="1" as="geometry">
            <mxPoint x="170" y="890" as="sourcePoint" />
            <mxPoint x="130" y="860" as="targetPoint" />
          </mxGeometry>
        </mxCell>
      </root>
    </mxGraphModel>
  </diagram>
</mxfile>
